HIERARCHY
ROOT Hips
{
	OFFSET 0.00000 0.00000 0.00000
	CHANNELS 6 Xposition Yposition Zposition Zrotation Yrotation Xrotation 
	JOINT LHipJoint
	{
		OFFSET 0 0 0
		CHANNELS 3 Zrotation Yrotation Xrotation
		JOINT LeftUpLeg
		{
			OFFSET 1.58161 -1.81893 0.78828
			CHANNELS 3 Zrotation Yrotation Xrotation
			JOINT LeftLeg
			{
				OFFSET 2.53374 -6.96141 0.00000
				CHANNELS 3 Zrotation Yrotation Xrotation
				JOINT LeftFoot
				{
					OFFSET 2.63509 -7.23986 0.00000
					CHANNELS 3 Zrotation Yrotation Xrotation
					JOINT LeftToeBase
					{
						OFFSET 0.14115 -0.38781 2.05350
						CHANNELS 3 Zrotation Yrotation Xrotation
						End Site
						{
							OFFSET 0.00000 -0.00000 1.05543
						}
					}
				}
			}
		}
	}
	JOINT RHipJoint
	{
		OFFSET 0 0 0
		CHANNELS 3 Zrotation Yrotation Xrotation
		JOINT RightUpLeg
		{
			OFFSET -1.11138 -1.81893 0.78828
			CHANNELS 3 Zrotation Yrotation Xrotation
			JOINT RightLeg
			{
				OFFSET -2.58392 -7.09926 0.00000
				CHANNELS 3 Zrotation Yrotation Xrotation
				JOINT RightFoot
				{
					OFFSET -2.66423 -7.31992 0.00000
					CHANNELS 3 Zrotation Yrotation Xrotation
					JOINT RightToeBase
					{
						OFFSET -0.18831 -0.51739 2.12114
						CHANNELS 3 Zrotation Yrotation Xrotation
						End Site
						{
							OFFSET -0.00000 -0.00000 1.09845
						}
					}
				}
			}
		}
	}
	JOINT LowerBack
	{
		OFFSET 0 0 0
		CHANNELS 3 Zrotation Yrotation Xrotation
		JOINT Spine
		{
			OFFSET -0.01511 1.97958 -0.08829
			CHANNELS 3 Zrotation Yrotation Xrotation
			JOINT Spine1
			{
				OFFSET 0.08344 1.97334 -0.04330
				CHANNELS 3 Zrotation Yrotation Xrotation
				JOINT Neck
				{
					OFFSET 0 0 0
					CHANNELS 3 Zrotation Yrotation Xrotation
					JOINT Neck1
					{
						OFFSET 0.00559 1.76246 0.31246
						CHANNELS 3 Zrotation Yrotation Xrotation
						JOINT Head
						{
							OFFSET -0.07011 1.80354 -0.30524
							CHANNELS 3 Zrotation Yrotation Xrotation
							End Site
							{
								OFFSET -0.02385 1.83547 -0.13906
							}
						}
					}
				}
				JOINT LeftShoulder
				{
					OFFSET 0 0 0
					CHANNELS 3 Zrotation Yrotation Xrotation
					JOINT LeftArm
					{
						OFFSET 3.20667 1.30156 -0.60240
						CHANNELS 3 Zrotation Yrotation Xrotation
						JOINT LeftForeArm
						{
							OFFSET 4.95663 -0.00000 0.00000
							CHANNELS 3 Zrotation Yrotation Xrotation
							JOINT LeftHand
							{
								OFFSET 3.38177 -0.00000 0.00000
								CHANNELS 3 Zrotation Yrotation Xrotation
								JOINT LeftFingerBase
								{
									OFFSET 0 0 0
									CHANNELS 3 Zrotation Yrotation Xrotation
									JOINT LeftHandIndex1
									{
										OFFSET 0.66291 -0.00000 0.00000
										CHANNELS 3 Zrotation Yrotation Xrotation
										End Site
										{
											OFFSET 0.53445 -0.00000 0.00000
										}
									}
								}
								JOINT LThumb
								{
									OFFSET 0 0 0
									CHANNELS 3 Zrotation Yrotation Xrotation
									End Site
									{
										OFFSET 0.54261 -0.00000 0.54261
									}
								}
							}
						}
					}
				}
				JOINT RightShoulder
				{
					OFFSET 0 0 0
					CHANNELS 3 Zrotation Yrotation Xrotation
					JOINT RightArm
					{
						OFFSET -3.06877 1.34672 -0.60964
						CHANNELS 3 Zrotation Yrotation Xrotation
						JOINT RightForeArm
						{
							OFFSET -5.08365 -0.00000 0.00000
							CHANNELS 3 Zrotation Yrotation Xrotation
							JOINT RightHand
							{
								OFFSET -3.35984 -0.00000 0.00000
								CHANNELS 3 Zrotation Yrotation Xrotation
								JOINT RightFingerBase
								{
									OFFSET 0 0 0
									CHANNELS 3 Zrotation Yrotation Xrotation
									JOINT RightHandIndex1
									{
										OFFSET -0.82076 -0.00000 0.00000
										CHANNELS 3 Zrotation Yrotation Xrotation
										End Site
										{
											OFFSET -0.66172 -0.00000 0.00000
										}
									}
								}
								JOINT RThumb
								{
									OFFSET 0 0 0
									CHANNELS 3 Zrotation Yrotation Xrotation
									End Site
									{
										OFFSET -0.67182 -0.00000 0.67182
									}
								}
							}
						}
					}
				}
			}
		}
	}
}
MOTION
Frames: 9
Frame Time: .0083333
1.2734 16.8444 -6.1075 -3.1068 -2.4608 25.8757 0.0000 0.0000 0.0000 -5.1346 -10.9213 -63.4602 5.9311 14.3612 44.7046 -0.3536 -12.6060 -2.8779 0.1106 -2.1448 -5.9059 0.0000 0.0000 0.0000 9.7527 4.9520 -60.2937 -7.1471 -15.4545 49.4286 -0.2705 -3.2777 -11.5911 -0.5571 4.7811 -13.2852 -3.3826 6.0510 28.3172 4.4736 6.8605 13.6708 4.8580 3.0139 -1.1244 -3.4024 -2.1042 -16.5574 -9.7790 0.3009 20.1885 -2.7548 -1.1538 9.1572 -0.0000 0.0000 0.0000 -62.2550 -27.6993 84.1138 47.8171 -52.0762 -24.4414 -0.0000 -0.0000 12.8012 47.3273 13.8761 14.5819 -7.1250 0.0000 -0.0000 19.7694 48.9550 1.9997 -0.0000 0.0000 0.0000 67.5984 53.0343 34.1377 -20.8438 31.6456 -5.9678 0.0000 -0.0000 -8.9914 -36.7909 16.6827 -12.1166 7.1250 -0.0000 -0.0000 -5.8359 -9.5481 -4.8127
1.2572 16.8074 -6.1076 -2.8994 -2.1514 26.7041 0.0000 0.0000 0.0000 -5.1536 -11.1041 -64.7082 5.9931 14.4216 44.9540 -0.3863 -12.9207 -2.6098 0.1064 -2.1032 -5.7910 0.0000 0.0000 0.0000 9.4295 4.9371 -61.5576 -7.3391 -15.6109 50.1456 -0.3071 -2.7637 -11.8562 -0.2803 3.4054 -9.4095 -3.2743 6.1187 28.3504 4.5030 6.9687 13.7275 4.7966 3.0687 -1.0801 -3.6761 -2.3942 -16.6042 -9.4619 -0.1204 19.8981 -2.6446 -1.3256 9.0495 0.0000 -0.0000 0.0000 -62.0183 -27.8447 83.8253 48.6649 -52.4426 -25.1118 -0.0000 -0.0000 13.1215 47.7501 13.9082 14.8221 -7.1250 0.0000 -0.0000 20.2346 49.0940 2.1219 0.0000 -0.0000 0.0000 66.4362 54.0858 33.0638 -20.4999 31.2399 -5.7884 0.0000 -0.0000 -8.8997 -36.9525 16.8426 -12.2960 7.1250 -0.0000 -0.0000 -5.9129 -9.3206 -4.9040
1.2371 16.7993 -6.1010 -2.4413 -1.5167 26.8529 0.0000 0.0000 0.0000 -5.4802 -11.5577 -65.0184 6.0282 14.4556 45.0948 -0.4207 -13.3252 -2.4724 0.0970 -2.0089 -5.5303 0.0000 0.0000 0.0000 9.0330 4.4905 -61.9605 -7.4984 -15.7376 50.7349 -0.3242 -2.8222 -12.1695 -0.1536 2.5252 -6.9596 -3.0507 6.0952 29.3100 4.5460 6.9633 13.8642 4.6647 3.0721 -1.3353 -4.0516 -2.7546 -16.9341 -8.8966 -0.6143 19.9238 -2.4569 -1.5303 9.1045 -0.0000 0.0000 0.0000 -61.6662 -28.2521 83.7139 49.3732 -52.7395 -25.6744 -0.0000 -0.0000 13.2980 48.3010 13.8502 15.0395 -7.1250 0.0000 -0.0000 20.8142 49.1441 2.2142 -0.0000 0.0000 0.0000 65.1260 55.1332 31.7648 -20.1332 30.8024 -5.5994 0.0000 -0.0000 -8.7785 -37.0075 17.0877 -12.4883 7.1250 -0.0000 -0.0000 -5.9069 -9.0157 -4.9353
1.2142 16.7794 -6.0959 -2.1602 -0.9320 27.0950 0.0000 0.0000 0.0000 -5.5737 -11.9125 -65.4591 6.0660 14.4920 45.2459 -0.4542 -13.6676 -2.2734 0.0859 -1.8906 -5.2034 0.0000 0.0000 0.0000 8.8135 4.1999 -62.4187 -7.6261 -15.8373 51.2046 -0.3227 -3.2120 -12.4028 -0.2469 3.1974 -8.8288 -2.7560 6.1160 30.1079 4.6619 7.0415 14.0238 4.5588 3.1144 -1.4981 -4.2431 -3.0785 -16.9401 -8.7446 -1.0799 19.4745 -2.4187 -1.7277 8.9385 -0.0000 -0.0000 0.0000 -61.4638 -28.6153 83.5455 50.1440 -53.0534 -26.2892 -0.0000 -0.0000 13.7450 48.8294 13.9888 15.4515 -7.1250 0.0000 -0.0000 21.4373 49.4553 2.4565 -0.0000 -0.0000 0.0000 63.5414 56.0067 30.1699 -20.0478 30.6999 -5.5557 0.0000 -0.0000 -8.6207 -36.6263 16.9480 -12.2268 7.1250 -0.0000 -0.0000 -5.6868 -9.2695 -4.7204
1.1885 16.7531 -6.0881 -2.0359 -0.5772 27.4566 0.0000 0.0000 0.0000 -5.5567 -12.0160 -66.0636 6.1091 14.5332 45.4179 -0.4846 -13.9799 -2.1115 0.0723 -1.7347 -4.7731 0.0000 0.0000 0.0000 8.7289 4.1346 -62.9932 -7.7376 -15.9229 51.6121 -0.3038 -3.6933 -12.4388 -0.5812 4.8817 -13.5713 -2.6410 6.2507 30.6818 4.8480 7.2262 14.1639 4.6100 3.1978 -1.6192 -4.2291 -3.3081 -16.5181 -9.0904 -1.4390 18.5387 -2.5460 -1.8864 8.5298 0.0000 0.0000 0.0000 -61.4861 -28.6976 83.3128 50.9617 -53.3761 -26.9441 -0.0000 -0.0000 14.4030 49.4933 14.3755 16.2052 -7.1250 0.0000 -0.0000 22.3104 50.1390 2.9555 0.0000 0.0000 0.0000 61.8490 56.8649 28.6682 -19.8783 30.4955 -5.4695 0.0000 -0.0000 -8.3361 -36.6706 16.4898 -11.9336 7.1250 -0.0000 -0.0000 -5.7904 -9.8048 -4.7447
1.1643 16.7288 -6.0782 -1.8580 -0.2699 27.7958 0.0000 0.0000 0.0000 -5.5651 -12.1875 -66.6342 6.1696 14.5907 45.6586 -0.5034 -14.2246 -2.1171 0.0627 -1.6152 -4.4433 0.0000 0.0000 0.0000 8.5817 4.0433 -63.6087 -7.8614 -16.0164 52.0620 -0.2845 -4.0611 -12.4054 -0.8050 5.7260 -15.9916 -2.5907 6.3888 31.3563 5.0028 7.3962 14.2594 4.6576 3.2733 -1.8339 -4.3999 -3.5464 -16.2948 -9.1265 -1.7878 17.9062 -2.5480 -2.0364 8.2677 0.0000 -0.0000 0.0000 -61.4952 -28.6567 83.1720 51.8220 -53.7044 -27.6360 -0.0000 -0.0000 14.8271 50.1586 14.4789 16.6807 -7.1250 0.0000 -0.0000 23.1021 50.4476 3.2529 0.0000 -0.0000 0.0000 60.1507 57.7821 27.1974 -19.5248 30.0656 -5.2912 0.0000 -0.0000 -8.0671 -37.1952 16.1440 -11.9155 7.1250 -0.0000 -0.0000 -6.1846 -10.1013 -5.0343
1.1464 16.7010 -6.0673 -1.5742 0.0017 28.2669 0.0000 0.0000 0.0000 -5.6576 -12.4407 -67.3395 6.2376 14.6548 45.9282 -0.5197 -14.4478 -2.1494 0.0614 -1.5986 -4.3976 0.0000 0.0000 0.0000 8.3094 3.8922 -64.4444 -8.0045 -16.1226 52.5790 -0.2793 -4.2461 -12.4646 -0.7755 5.6226 -15.6931 -2.5197 6.4617 32.2322 5.2218 7.4586 14.1369 4.4686 3.2904 -2.0599 -4.7944 -3.7696 -16.3792 -8.8868 -2.0618 17.5884 -2.4290 -2.1575 8.1774 -0.0000 -0.0000 0.0000 -61.5073 -28.5601 82.8853 52.8456 -54.0806 -28.4630 -0.0000 -0.0000 15.1283 50.6472 14.1799 16.6325 -7.1250 0.0000 -0.0000 23.5393 50.1665 3.1512 -0.0000 -0.0000 0.0000 58.3618 58.7303 25.7456 -19.2001 29.6665 -5.1295 0.0000 -0.0000 -8.0136 -37.4391 16.1372 -12.0134 7.1250 -0.0000 -0.0000 -6.3426 -10.0548 -5.1705
1.1301 16.6705 -6.0549 -1.3476 0.2676 28.8032 0.0000 0.0000 0.0000 -5.7053 -12.6591 -68.1095 6.3030 14.7157 46.1861 -0.5351 -14.6888 -2.2402 0.0734 -1.7474 -4.8080 0.0000 0.0000 0.0000 8.0947 3.8043 -65.2814 -8.1446 -16.2246 53.0820 -0.2800 -4.4813 -12.6642 -0.7294 5.4568 -15.2161 -2.4284 6.5079 32.6366 5.3242 7.5304 14.2479 4.4816 3.3199 -2.1002 -5.1346 -4.0008 -16.3836 -8.7319 -2.3546 17.2122 -2.3462 -2.2879 8.0529 0.0000 -0.0000 0.0000 -61.5500 -28.4840 82.5345 53.8751 -54.4437 -29.2987 -0.0000 -0.0000 15.5272 51.0537 14.1316 16.8084 -7.1250 0.0000 -0.0000 23.9825 50.2057 3.2410 0.0000 -0.0000 0.0000 56.4196 59.5959 24.2464 -18.9153 29.3133 -4.9893 0.0000 -0.0000 -8.1849 -37.5464 16.5940 -12.3805 7.1250 -0.0000 -0.0000 -6.3345 -9.4816 -5.2375
1.1094 16.6442 -6.0428 -1.1820 0.4893 29.3487 0.0000 0.0000 0.0000 -5.7119 -12.7793 -68.8873 6.3649 14.7729 46.4291 -0.5530 -14.9473 -2.3145 0.0791 -1.8138 -4.9914 0.0000 0.0000 0.0000 7.9300 3.8104 -66.0692 -8.2870 -16.3264 53.5901 -0.2921 -4.6903 -13.0256 -0.6493 5.1544 -14.3494 -2.4142 6.6430 32.9462 5.4974 7.6931 14.4179 4.5878 3.3864 -2.0693 -5.4472 -4.2917 -16.2312 -8.5827 -2.7683 16.6132 -2.2733 -2.4625 7.8244 0.0000 -0.0000 0.0000 -61.6518 -28.5106 82.2834 54.7823 -54.7512 -30.0381 -0.0000 -0.0000 16.0357 51.3166 14.3265 17.1737 -7.1250 0.0000 -0.0000 24.3676 50.5426 3.5094 0.0000 -0.0000 0.0000 54.0858 60.4288 22.3426 -18.6611 28.9954 -4.8655 0.0000 -0.0000 -8.5453 -37.5934 17.0733 -12.7373 7.1250 -0.0000 -0.0000 -6.2825 -8.8957 -5.2681
